PathFileType	4	(X/Y/Z)	OpenSim_Sub06_EMGStiffKnee_Gyro.trc
DataRate	CameraRate	NumFrames	NumMarkers	Units	OrigDataRate	OrigDataStartFrame	OrigNumFrames
100	100	27	8	m	100	680	5432
Frame#	Time	torso_imu_offset_imu	pelvis_imu_offset_imu	tibia_r_imu_offset_imu	femur_r_imu_offset_imu	tibia_l_imu_offset_imu	femur_l_imu_offset_imu	toes_r_imu_offset_imu	toes_l_imu_offset_imu
				X1	Y1	Z1	X2	Y2	Z2	X3	Y3	Z3	X4	Y4	Z4	X5	Y5	Z5	X6	Y6	Z6	X7	Y7	Z7	X8		Y8	Z8	

680	6.79000000	0.08733600	0.07454400	0.07020300	-1.15574100	0.09472400	-0.17499400	2.35630800	0.42954900	-1.93969200	-0.56559100	0.79615200	1.01534100	-0.52649500	0.35267300	2.35082600	-1.02810500	-0.40705300	-0.45787200	-0.19651500	-0.30389000	0.25921900	-0.71147900	-3.20367800	1.31436400
681	6.80000000	0.10884400	0.08432100	0.02395400	-0.83662300	0.27588200	-0.52058800	2.22834900	0.25929700	-2.06940200	-1.11339600	0.20710700	1.00186300	-0.28472500	0.10171400	2.46549000	-1.43295100	-0.27532400	-0.92438700	-0.23358900	-0.36589900	0.34945500	-0.91445400	-3.57714700	1.49558600
682	6.81000000	0.19168700	0.04598300	-0.01274200	-0.21504900	0.30625500	-0.73576700	1.99396900	0.07458400	-1.90158800	-0.71977300	-0.23444900	0.64403900	-0.24952100	-0.05379800	2.54841500	-1.39354800	0.11584100	-1.49284200	-0.26416900	-0.39473900	0.33698100	-0.93106300	-3.87157100	1.72530100
683	6.82000000	0.14360300	-0.05338200	0.09241700	0.34488700	0.22062500	-0.81249800	1.63614800	-0.39799800	-1.39904100	-0.07616500	-0.47006700	0.07310400	-0.51190400	-0.20673200	2.62592100	-0.99841700	0.64475400	-1.97161200	-0.20917200	-0.42168700	0.20382100	-1.04449200	-4.24284000	1.90750400
684	6.83000000	0.16657900	-0.12610600	0.19791900	0.74834000	0.18611700	-0.78182400	1.43187200	-0.48191300	-0.84941900	0.10117500	-0.55288300	-0.50515400	-0.66204400	-0.40739100	2.71114800	-0.52649700	1.16093400	-2.26712400	-0.05821700	-0.34124600	0.03780800	-0.46600100	-4.56593900	1.86086700
685	6.84000000	0.40800000	-0.11903000	0.23791900	0.99926600	0.20497100	-0.60869200	1.18145000	-0.29443800	-0.44418100	-0.34561200	-0.48635600	-1.04820000	-0.29937000	-0.48059700	2.69290800	-0.10944100	1.57093000	-2.32554600	-0.03377300	-0.19424900	-0.10134400	1.00105000	-4.82857800	1.73033300
686	6.85000000	0.64281100	-0.14120200	0.21805100	1.12014600	0.27500200	-0.39331000	0.32010800	-0.44179700	-0.17982700	-1.15141300	-0.53270200	-1.62675200	0.01983700	-0.11544200	2.53643800	0.14014800	1.73926700	-2.19824300	0.07010000	-0.13591400	-0.24064200	1.36078100	-4.63356200	1.56941100
687	6.86000000	0.72043600	-0.05533900	0.17676700	1.20540000	0.35167500	-0.14334700	-0.45950500	-0.48687700	-0.16732200	-1.82201100	-0.88438800	-1.91499400	-0.01399200	0.15047800	2.39612600	0.04984100	1.67371200	-2.07270500	0.04629700	-0.06825700	-0.25275100	1.26737100	-4.13018200	1.31775900
688	6.87000000	0.72390300	-0.01227000	0.08858600	1.27434300	0.37231800	0.10649300	-0.74868900	-0.27886200	-0.31227300	-1.78394700	-0.95786000	-1.74080200	0.04073100	0.04057700	2.27974200	-0.29210700	1.40539700	-2.02237400	0.04475600	-0.08289200	-0.23479000	1.97373600	-3.50037600	1.26051800
689	6.88000000	0.71250200	-0.03322200	-0.02049800	1.32213000	0.31338500	0.28855200	-0.81275500	-0.21803400	-0.47326100	-0.96595700	-0.43623400	-1.44243800	0.24665000	-0.18734800	2.15164000	-0.77245800	0.95386700	-1.95177000	-0.02848700	-0.10619700	-0.13850300	0.89601600	-2.45409500	1.42129500
690	6.89000000	0.76557400	-0.05862100	-0.07976600	1.23745700	0.18522000	0.36383300	-0.84633000	-0.27420900	-0.69119200	0.03858900	0.15708600	-1.27824900	0.51027200	-0.43985400	1.93923100	-0.99525800	0.50823900	-1.88226700	-0.12396600	-0.16480000	-0.06146900	-0.73157400	-1.39548800	2.02681000
691	6.90000000	0.84422500	-0.10200700	-0.03754900	1.02969700	0.10544100	0.38496300	-0.70134800	-0.27540900	-0.86195500	0.43734800	0.24165100	-1.14451300	1.20294900	-0.67938400	1.51016400	-0.88323200	0.23463800	-1.80757700	-0.14105900	-0.21680800	-0.02156500	0.32350400	1.14070300	1.72870800
692	6.91000000	0.89233200	-0.13636300	0.05487800	0.77385400	0.13130100	0.39109100	-0.21654400	-0.30108900	-0.81553700	0.48236100	0.00498600	-1.05747500	2.24925300	-0.65415500	0.80564900	-0.55755800	0.17243900	-1.67691800	-0.17421700	-0.24722200	0.01071800	0.15267900	0.45533900	1.91480500
693	6.92000000	0.94266900	-0.14353300	0.16093400	0.53154500	0.21710100	0.35185200	0.34650200	-0.28413300	-0.59854600	0.76975400	-0.15943400	-1.02779000	3.18880500	-0.31904200	0.03901100	-0.12559800	0.25615100	-1.52195500	-0.16759900	-0.27797300	0.00685700	0.28337100	0.60452200	1.75252800
694	6.93000000	0.98407800	-0.09586500	0.29095100	0.37585800	0.26261800	0.25789300	0.72651100	-0.23956700	-0.41146000	1.07085300	-0.15471300	-1.00386500	3.59105300	0.02442700	-0.54505900	0.38188300	0.42397600	-1.39798000	-0.11426500	-0.25623100	-0.00236400	0.85303200	1.21288500	1.31857500
695	6.94000000	0.93048400	-0.10650100	0.40067900	0.34732600	0.27644200	0.14963900	0.92239000	-0.24418700	-0.31524400	1.09659700	-0.13153700	-0.93938900	3.46183900	0.12633600	-0.90567600	0.88476000	0.60231700	-1.35894100	-0.11733900	-0.24828200	-0.04752200	0.74160600	1.64393000	0.92919700
696	6.95000000	0.93733200	-0.09836100	0.46421800	0.39598900	0.28035000	0.00181400	0.89962900	-0.25565000	-0.23710300	0.94543500	-0.17371000	-0.90775600	3.08445900	0.03528800	-1.13583200	1.28184500	0.72396100	-1.42067900	-0.07386600	-0.23415200	-0.07715900	0.63407200	1.85664600	0.57813900
697	6.96000000	0.94430800	-0.09228000	0.51145100	0.42048100	0.23644400	-0.12122000	0.65832000	-0.24264300	-0.26040900	0.67689100	-0.29677000	-0.93743500	2.61064400	-0.05412600	-1.38048500	1.54736900	0.78431600	-1.51819000	-0.06912500	-0.26115700	-0.11300700	0.80013200	2.07336000	0.22803000
698	6.97000000	0.94261700	-0.17795200	0.49399000	0.41895200	0.18013500	-0.20311400	0.42880800	-0.25600400	-0.39906900	0.28709500	-0.48908700	-0.99949900	2.04231600	-0.15579500	-1.73526500	1.73569200	0.79981200	-1.53509400	-0.02242700	-0.28190800	-0.14930000	1.00810700	2.34836400	-0.05202200
699	6.98000000	1.00941200	-0.20264000	0.51797300	0.44574400	0.16497600	-0.23920200	0.16351600	-0.24321100	-0.49924500	-0.10808800	-0.63466000	-1.01136800	1.42121100	-0.31490800	-2.23631000	1.81420100	0.77829200	-1.49563700	-0.03423600	-0.32708300	-0.14827500	1.06504400	2.60538000	-0.20519900
700	6.99000000	1.13876700	-0.20281500	0.53204600	0.45617400	0.18042800	-0.27262500	-0.00205400	-0.19660100	-0.52190500	-0.34958900	-0.62766200	-0.97142200	0.81183700	-0.50689200	-2.72695700	1.79732800	0.71502800	-1.40045600	-0.00550700	-0.36229000	-0.15258000	1.15681700	2.80425800	-0.24572800
701	7	1.12216000	-0.24167900	0.49982900	0.42603200	0.15098200	-0.26163600	-0.09164600	-0.15948700	-0.48893500	-0.44828100	-0.49378400	-0.92199900	0.24708900	-0.64565300	-3.01790000	1.73191000	0.61873200	-1.28682900	-0.01695200	-0.39192000	-0.15421900	1.29771100	2.98834700	-0.22418100
702	7.01000000	1.03483500	-0.25483600	0.45810400	0.40238900	0.10405500	-0.21144000	-0.09936500	-0.14880600	-0.47913700	-0.46842000	-0.33553000	-0.84602900	-0.29743000	-0.64635300	-3.09966900	1.62854300	0.52069000	-1.19587300	0.03453300	-0.44032400	-0.17919200	1.47879800	3.15481800	-0.21663800
703	7.02000000	0.96641700	-0.22268000	0.42564300	0.38694800	0.06951000	-0.15023900	-0.05667300	-0.13859600	-0.50158500	-0.38512300	-0.23705900	-0.74150000	-0.75655600	-0.52880700	-3.14067000	1.48796300	0.43198300	-1.13945200	0.02286000	-0.46663500	-0.17848800	1.59729600	3.24945900	-0.28441900
704	7.03000000	0.92041400	-0.24503300	0.39720800	0.36387400	0.06664100	-0.07195900	-0.00190600	-0.11947500	-0.54138300	-0.21365000	-0.19032300	-0.72284300	-0.96624800	-0.40814900	-3.24107000	1.34092000	0.38103700	-1.14977800	0.00473200	-0.50816900	-0.17177700	1.46984500	3.18120300	-0.46446600
705	7.04000000	0.88026700	-0.24166900	0.37761000	0.36465500	0.09322900	0.00855300	0.06794700	-0.09806200	-0.56902000	-0.00571500	-0.14165300	-0.76336500	-0.78127500	-0.35601900	-3.40591900	1.13555700	0.34643300	-1.18998500	0.02115200	-0.52235500	-0.17443800	1.30804900	2.92139600	-0.75770600
706	7.05000000	0.86833800	-0.20221900	0.37329100	0.37455200	0.15003900	0.05869100	0.15123400	-0.07116800	-0.56996900	0.15957100	-0.08397800	-0.79210200	-0.41611000	-0.30462000	-3.61199200	0.86985800	0.28810200	-1.19132700	0.00191500	-0.52281000	-0.19461400	1.14899500	2.60771600	-1.18147400
